<mxfile host="app.diagrams.net" modified="2023-09-19T14:01:58.456Z" agent="Mozilla/5.0 (Windows NT 10.0; Win64; x64) AppleWebKit/537.36 (KHTML, like Gecko) Chrome/116.0.0.0 Safari/537.36 Edg/116.0.1938.81" etag="91D0yAjBvD2q_sOi-s39" version="21.7.5" type="github">
  <diagram id="C5RBs43oDa-KdzZeNtuy" name="Page-1">
    <mxGraphModel dx="955" dy="1690" grid="1" gridSize="10" guides="1" tooltips="1" connect="1" arrows="1" fold="1" page="1" pageScale="1" pageWidth="827" pageHeight="1169" math="0" shadow="0">
      <root>
        <mxCell id="WIyWlLk6GJQsqaUBKTNV-0" />
        <mxCell id="WIyWlLk6GJQsqaUBKTNV-1" parent="WIyWlLk6GJQsqaUBKTNV-0" />
        <mxCell id="zkfFHV4jXpPFQw0GAbJ--0" value="User" style="swimlane;fontStyle=0;align=center;verticalAlign=top;childLayout=stackLayout;horizontal=1;startSize=26;horizontalStack=0;resizeParent=1;resizeLast=0;collapsible=1;marginBottom=0;rounded=0;shadow=0;strokeWidth=1;" parent="WIyWlLk6GJQsqaUBKTNV-1" vertex="1">
          <mxGeometry x="220" y="30" width="210" height="280" as="geometry">
            <mxRectangle x="230" y="140" width="160" height="26" as="alternateBounds" />
          </mxGeometry>
        </mxCell>
        <mxCell id="zkfFHV4jXpPFQw0GAbJ--1" value="UID: STRING" style="text;align=left;verticalAlign=top;spacingLeft=4;spacingRight=4;overflow=hidden;rotatable=0;points=[[0,0.5],[1,0.5]];portConstraint=eastwest;" parent="zkfFHV4jXpPFQw0GAbJ--0" vertex="1">
          <mxGeometry y="26" width="210" height="26" as="geometry" />
        </mxCell>
        <mxCell id="zkfFHV4jXpPFQw0GAbJ--2" value="NAME: STRING" style="text;align=left;verticalAlign=top;spacingLeft=4;spacingRight=4;overflow=hidden;rotatable=0;points=[[0,0.5],[1,0.5]];portConstraint=eastwest;rounded=0;shadow=0;html=0;" parent="zkfFHV4jXpPFQw0GAbJ--0" vertex="1">
          <mxGeometry y="52" width="210" height="26" as="geometry" />
        </mxCell>
        <mxCell id="zkfFHV4jXpPFQw0GAbJ--3" value="EMAIL: STRING&#xa;" style="text;align=left;verticalAlign=top;spacingLeft=4;spacingRight=4;overflow=hidden;rotatable=0;points=[[0,0.5],[1,0.5]];portConstraint=eastwest;rounded=0;shadow=0;html=0;" parent="zkfFHV4jXpPFQw0GAbJ--0" vertex="1">
          <mxGeometry y="78" width="210" height="26" as="geometry" />
        </mxCell>
        <mxCell id="D-6dl7BGyW9uIBz0EqzR-1" value="PROFILE PICTURE: STRING" style="text;align=left;verticalAlign=top;spacingLeft=4;spacingRight=4;overflow=hidden;rotatable=0;points=[[0,0.5],[1,0.5]];portConstraint=eastwest;rounded=0;shadow=0;html=0;" vertex="1" parent="zkfFHV4jXpPFQw0GAbJ--0">
          <mxGeometry y="104" width="210" height="26" as="geometry" />
        </mxCell>
        <mxCell id="D-6dl7BGyW9uIBz0EqzR-8" value="" style="endArrow=none;html=1;rounded=0;exitX=0.005;exitY=1.066;exitDx=0;exitDy=0;exitPerimeter=0;entryX=1.006;entryY=1.038;entryDx=0;entryDy=0;entryPerimeter=0;" edge="1" parent="zkfFHV4jXpPFQw0GAbJ--0" source="D-6dl7BGyW9uIBz0EqzR-1" target="D-6dl7BGyW9uIBz0EqzR-1">
          <mxGeometry width="50" height="50" relative="1" as="geometry">
            <mxPoint x="30" y="180" as="sourcePoint" />
            <mxPoint x="80" y="130" as="targetPoint" />
          </mxGeometry>
        </mxCell>
        <mxCell id="D-6dl7BGyW9uIBz0EqzR-9" value="GET UID: STRING" style="text;align=left;verticalAlign=top;spacingLeft=4;spacingRight=4;overflow=hidden;rotatable=0;points=[[0,0.5],[1,0.5]];portConstraint=eastwest;rounded=0;shadow=0;html=0;" vertex="1" parent="zkfFHV4jXpPFQw0GAbJ--0">
          <mxGeometry y="130" width="210" height="26" as="geometry" />
        </mxCell>
        <mxCell id="D-6dl7BGyW9uIBz0EqzR-10" value="GET NAME: STRING" style="text;align=left;verticalAlign=top;spacingLeft=4;spacingRight=4;overflow=hidden;rotatable=0;points=[[0,0.5],[1,0.5]];portConstraint=eastwest;rounded=0;shadow=0;html=0;" vertex="1" parent="zkfFHV4jXpPFQw0GAbJ--0">
          <mxGeometry y="156" width="210" height="26" as="geometry" />
        </mxCell>
        <mxCell id="D-6dl7BGyW9uIBz0EqzR-11" value="GET EMAIL: STRING" style="text;align=left;verticalAlign=top;spacingLeft=4;spacingRight=4;overflow=hidden;rotatable=0;points=[[0,0.5],[1,0.5]];portConstraint=eastwest;rounded=0;shadow=0;html=0;" vertex="1" parent="zkfFHV4jXpPFQw0GAbJ--0">
          <mxGeometry y="182" width="210" height="26" as="geometry" />
        </mxCell>
        <mxCell id="D-6dl7BGyW9uIBz0EqzR-12" value="GET PROFILE PICTURE: STRING" style="text;align=left;verticalAlign=top;spacingLeft=4;spacingRight=4;overflow=hidden;rotatable=0;points=[[0,0.5],[1,0.5]];portConstraint=eastwest;rounded=0;shadow=0;html=0;" vertex="1" parent="zkfFHV4jXpPFQw0GAbJ--0">
          <mxGeometry y="208" width="210" height="26" as="geometry" />
        </mxCell>
        <mxCell id="D-6dl7BGyW9uIBz0EqzR-14" value="Key" style="swimlane;fontStyle=1;align=center;verticalAlign=top;childLayout=stackLayout;horizontal=1;startSize=26;horizontalStack=0;resizeParent=1;resizeParentMax=0;resizeLast=0;collapsible=1;marginBottom=0;whiteSpace=wrap;html=1;" vertex="1" parent="WIyWlLk6GJQsqaUBKTNV-1">
          <mxGeometry x="570" y="160" width="230" height="144" as="geometry" />
        </mxCell>
        <mxCell id="D-6dl7BGyW9uIBz0EqzR-15" value="TYPE: KEY TYPE" style="text;strokeColor=none;fillColor=none;align=left;verticalAlign=top;spacingLeft=4;spacingRight=4;overflow=hidden;rotatable=0;points=[[0,0.5],[1,0.5]];portConstraint=eastwest;whiteSpace=wrap;html=1;" vertex="1" parent="D-6dl7BGyW9uIBz0EqzR-14">
          <mxGeometry y="26" width="230" height="26" as="geometry" />
        </mxCell>
        <mxCell id="D-6dl7BGyW9uIBz0EqzR-18" value="KEY: STRING" style="text;strokeColor=none;fillColor=none;align=left;verticalAlign=top;spacingLeft=4;spacingRight=4;overflow=hidden;rotatable=0;points=[[0,0.5],[1,0.5]];portConstraint=eastwest;whiteSpace=wrap;html=1;" vertex="1" parent="D-6dl7BGyW9uIBz0EqzR-14">
          <mxGeometry y="52" width="230" height="28" as="geometry" />
        </mxCell>
        <mxCell id="D-6dl7BGyW9uIBz0EqzR-20" value="" style="line;strokeWidth=1;fillColor=none;align=left;verticalAlign=middle;spacingTop=-1;spacingLeft=3;spacingRight=3;rotatable=0;labelPosition=right;points=[];portConstraint=eastwest;strokeColor=inherit;" vertex="1" parent="D-6dl7BGyW9uIBz0EqzR-14">
          <mxGeometry y="80" width="230" height="8" as="geometry" />
        </mxCell>
        <mxCell id="D-6dl7BGyW9uIBz0EqzR-22" value="GET VALUE: STRING" style="text;strokeColor=none;fillColor=none;align=left;verticalAlign=top;spacingLeft=4;spacingRight=4;overflow=hidden;rotatable=0;points=[[0,0.5],[1,0.5]];portConstraint=eastwest;whiteSpace=wrap;html=1;" vertex="1" parent="D-6dl7BGyW9uIBz0EqzR-14">
          <mxGeometry y="88" width="230" height="28" as="geometry" />
        </mxCell>
        <mxCell id="D-6dl7BGyW9uIBz0EqzR-23" value="GET TYPE: KEY TYPE" style="text;strokeColor=none;fillColor=none;align=left;verticalAlign=top;spacingLeft=4;spacingRight=4;overflow=hidden;rotatable=0;points=[[0,0.5],[1,0.5]];portConstraint=eastwest;whiteSpace=wrap;html=1;" vertex="1" parent="D-6dl7BGyW9uIBz0EqzR-14">
          <mxGeometry y="116" width="230" height="28" as="geometry" />
        </mxCell>
        <mxCell id="D-6dl7BGyW9uIBz0EqzR-24" value="KEY TYPE" style="swimlane;fontStyle=1;align=center;verticalAlign=top;childLayout=stackLayout;horizontal=1;startSize=26;horizontalStack=0;resizeParent=1;resizeParentMax=0;resizeLast=0;collapsible=1;marginBottom=0;whiteSpace=wrap;html=1;" vertex="1" parent="WIyWlLk6GJQsqaUBKTNV-1">
          <mxGeometry x="605" y="-90" width="160" height="138" as="geometry" />
        </mxCell>
        <mxCell id="D-6dl7BGyW9uIBz0EqzR-25" value="PUBLIC&lt;br&gt;" style="text;strokeColor=none;fillColor=none;align=left;verticalAlign=top;spacingLeft=4;spacingRight=4;overflow=hidden;rotatable=0;points=[[0,0.5],[1,0.5]];portConstraint=eastwest;whiteSpace=wrap;html=1;" vertex="1" parent="D-6dl7BGyW9uIBz0EqzR-24">
          <mxGeometry y="26" width="160" height="26" as="geometry" />
        </mxCell>
        <mxCell id="D-6dl7BGyW9uIBz0EqzR-28" value="PRIVATE" style="text;strokeColor=none;fillColor=none;align=left;verticalAlign=top;spacingLeft=4;spacingRight=4;overflow=hidden;rotatable=0;points=[[0,0.5],[1,0.5]];portConstraint=eastwest;whiteSpace=wrap;html=1;" vertex="1" parent="D-6dl7BGyW9uIBz0EqzR-24">
          <mxGeometry y="52" width="160" height="26" as="geometry" />
        </mxCell>
        <mxCell id="D-6dl7BGyW9uIBz0EqzR-29" value="SECRET" style="text;strokeColor=none;fillColor=none;align=left;verticalAlign=top;spacingLeft=4;spacingRight=4;overflow=hidden;rotatable=0;points=[[0,0.5],[1,0.5]];portConstraint=eastwest;whiteSpace=wrap;html=1;" vertex="1" parent="D-6dl7BGyW9uIBz0EqzR-24">
          <mxGeometry y="78" width="160" height="26" as="geometry" />
        </mxCell>
        <mxCell id="D-6dl7BGyW9uIBz0EqzR-26" value="" style="line;strokeWidth=1;fillColor=none;align=left;verticalAlign=middle;spacingTop=-1;spacingLeft=3;spacingRight=3;rotatable=0;labelPosition=right;points=[];portConstraint=eastwest;strokeColor=inherit;" vertex="1" parent="D-6dl7BGyW9uIBz0EqzR-24">
          <mxGeometry y="104" width="160" height="8" as="geometry" />
        </mxCell>
        <mxCell id="D-6dl7BGyW9uIBz0EqzR-27" value="+ method(type): type" style="text;strokeColor=none;fillColor=none;align=left;verticalAlign=top;spacingLeft=4;spacingRight=4;overflow=hidden;rotatable=0;points=[[0,0.5],[1,0.5]];portConstraint=eastwest;whiteSpace=wrap;html=1;" vertex="1" parent="D-6dl7BGyW9uIBz0EqzR-24">
          <mxGeometry y="112" width="160" height="26" as="geometry" />
        </mxCell>
        <mxCell id="D-6dl7BGyW9uIBz0EqzR-31" value="CRYPTO" style="swimlane;fontStyle=1;align=center;verticalAlign=top;childLayout=stackLayout;horizontal=1;startSize=26;horizontalStack=0;resizeParent=1;resizeParentMax=0;resizeLast=0;collapsible=1;marginBottom=0;whiteSpace=wrap;html=1;" vertex="1" parent="WIyWlLk6GJQsqaUBKTNV-1">
          <mxGeometry x="298" y="370" width="230" height="144" as="geometry">
            <mxRectangle x="298" y="370" width="90" height="30" as="alternateBounds" />
          </mxGeometry>
        </mxCell>
        <mxCell id="D-6dl7BGyW9uIBz0EqzR-32" value="TYPE: KEY TYPE" style="text;strokeColor=none;fillColor=none;align=left;verticalAlign=top;spacingLeft=4;spacingRight=4;overflow=hidden;rotatable=0;points=[[0,0.5],[1,0.5]];portConstraint=eastwest;whiteSpace=wrap;html=1;" vertex="1" parent="D-6dl7BGyW9uIBz0EqzR-31">
          <mxGeometry y="26" width="230" height="26" as="geometry" />
        </mxCell>
        <mxCell id="D-6dl7BGyW9uIBz0EqzR-33" value="KEY: STRING" style="text;strokeColor=none;fillColor=none;align=left;verticalAlign=top;spacingLeft=4;spacingRight=4;overflow=hidden;rotatable=0;points=[[0,0.5],[1,0.5]];portConstraint=eastwest;whiteSpace=wrap;html=1;" vertex="1" parent="D-6dl7BGyW9uIBz0EqzR-31">
          <mxGeometry y="52" width="230" height="28" as="geometry" />
        </mxCell>
        <mxCell id="D-6dl7BGyW9uIBz0EqzR-34" value="" style="line;strokeWidth=1;fillColor=none;align=left;verticalAlign=middle;spacingTop=-1;spacingLeft=3;spacingRight=3;rotatable=0;labelPosition=right;points=[];portConstraint=eastwest;strokeColor=inherit;" vertex="1" parent="D-6dl7BGyW9uIBz0EqzR-31">
          <mxGeometry y="80" width="230" height="8" as="geometry" />
        </mxCell>
        <mxCell id="D-6dl7BGyW9uIBz0EqzR-35" value="GET VALUE: STRING" style="text;strokeColor=none;fillColor=none;align=left;verticalAlign=top;spacingLeft=4;spacingRight=4;overflow=hidden;rotatable=0;points=[[0,0.5],[1,0.5]];portConstraint=eastwest;whiteSpace=wrap;html=1;" vertex="1" parent="D-6dl7BGyW9uIBz0EqzR-31">
          <mxGeometry y="88" width="230" height="28" as="geometry" />
        </mxCell>
        <mxCell id="D-6dl7BGyW9uIBz0EqzR-36" value="GET TYPE: KEY TYPE" style="text;strokeColor=none;fillColor=none;align=left;verticalAlign=top;spacingLeft=4;spacingRight=4;overflow=hidden;rotatable=0;points=[[0,0.5],[1,0.5]];portConstraint=eastwest;whiteSpace=wrap;html=1;" vertex="1" parent="D-6dl7BGyW9uIBz0EqzR-31">
          <mxGeometry y="116" width="230" height="28" as="geometry" />
        </mxCell>
      </root>
    </mxGraphModel>
  </diagram>
</mxfile>
